# xmcd CD database file
#
# Track frame offsets:
#	150
#	37530
#	91292
#	135547
#	169800
#	203675
#	238727
#	278972
#
# Disc length: 3990 seconds
#
# Revision: 0
# Processed by: cddbd v1.5PL3 Copyright (c) Steve Scherf et al.
# Submitted via: CDex 1.51
#
DISCID=620f9408
DTITLE=Normand Guilbeault Ensemble - Dualismus
DYEAR=1994
DGENRE=Jazz
TTITLE0=Transmission
TTITLE1=Mère -- Terre
TTITLE2=The Wampum Song
TTITLE3=Trésor d'Àme
TTITLE4=Tonight At Noon
TTITLE5=My One And Only Love
TTITLE6=J.P.
TTITLE7=Free"Z"be
EXTD=YEAR: 1994
EXTT0=
EXTT1=
EXTT2=
EXTT3=
EXTT4=
EXTT5=
EXTT6=
EXTT7=
PLAYORDER=
